<mxfile host="app.diagrams.net" modified="2022-12-06T22:59:03.613Z" agent="5.0 (Windows NT 10.0; Win64; x64) AppleWebKit/537.36 (KHTML, like Gecko) Chrome/108.0.0.0 Safari/537.36" version="20.6.0" etag="sH0MIP4DEZM3fOOVqn6j" type="github">
  <diagram id="91DqJ2ZjKso7opC28-ch" name="Страница 1">
    <mxGraphModel dx="1422" dy="754" grid="1" gridSize="10" guides="1" tooltips="1" connect="1" arrows="1" fold="1" page="1" pageScale="1" pageWidth="827" pageHeight="1169" math="0" shadow="0">
      <root>
        <mxCell id="0" />
        <mxCell id="1" parent="0" />
        <mxCell id="6fCM-ssJAGUvHr9FJVWj-6" value="" style="edgeStyle=orthogonalEdgeStyle;rounded=0;orthogonalLoop=1;jettySize=auto;html=1;" edge="1" parent="1" source="6fCM-ssJAGUvHr9FJVWj-1" target="6fCM-ssJAGUvHr9FJVWj-2">
          <mxGeometry relative="1" as="geometry" />
        </mxCell>
        <mxCell id="6fCM-ssJAGUvHr9FJVWj-1" value="&lt;b&gt;Старт&lt;/b&gt;" style="ellipse;whiteSpace=wrap;html=1;fillColor=#ffe6cc;strokeColor=#d79b00;" vertex="1" parent="1">
          <mxGeometry x="324" y="50" width="180" height="80" as="geometry" />
        </mxCell>
        <mxCell id="6fCM-ssJAGUvHr9FJVWj-7" value="" style="edgeStyle=orthogonalEdgeStyle;rounded=0;orthogonalLoop=1;jettySize=auto;html=1;" edge="1" parent="1" source="6fCM-ssJAGUvHr9FJVWj-2" target="6fCM-ssJAGUvHr9FJVWj-3">
          <mxGeometry relative="1" as="geometry" />
        </mxCell>
        <mxCell id="6fCM-ssJAGUvHr9FJVWj-2" value="&lt;b&gt;Ввод данных&lt;/b&gt;" style="shape=parallelogram;perimeter=parallelogramPerimeter;whiteSpace=wrap;html=1;fixedSize=1;fillColor=#fff2cc;strokeColor=#d6b656;" vertex="1" parent="1">
          <mxGeometry x="332" y="170" width="164" height="60" as="geometry" />
        </mxCell>
        <mxCell id="6fCM-ssJAGUvHr9FJVWj-8" value="" style="edgeStyle=orthogonalEdgeStyle;rounded=0;orthogonalLoop=1;jettySize=auto;html=1;" edge="1" parent="1" source="6fCM-ssJAGUvHr9FJVWj-3" target="6fCM-ssJAGUvHr9FJVWj-4">
          <mxGeometry relative="1" as="geometry" />
        </mxCell>
        <mxCell id="6fCM-ssJAGUvHr9FJVWj-13" value="" style="edgeStyle=orthogonalEdgeStyle;rounded=0;orthogonalLoop=1;jettySize=auto;html=1;" edge="1" parent="1" source="6fCM-ssJAGUvHr9FJVWj-3" target="6fCM-ssJAGUvHr9FJVWj-5">
          <mxGeometry relative="1" as="geometry" />
        </mxCell>
        <mxCell id="6fCM-ssJAGUvHr9FJVWj-3" value="&lt;b&gt;Условие&lt;/b&gt;" style="rhombus;whiteSpace=wrap;html=1;fillColor=#dae8fc;strokeColor=#6c8ebf;" vertex="1" parent="1">
          <mxGeometry x="334" y="280" width="160" height="90" as="geometry" />
        </mxCell>
        <mxCell id="6fCM-ssJAGUvHr9FJVWj-11" style="edgeStyle=orthogonalEdgeStyle;rounded=0;orthogonalLoop=1;jettySize=auto;html=1;entryX=0;entryY=0.5;entryDx=0;entryDy=0;" edge="1" parent="1" source="6fCM-ssJAGUvHr9FJVWj-4" target="6fCM-ssJAGUvHr9FJVWj-3">
          <mxGeometry relative="1" as="geometry">
            <Array as="points">
              <mxPoint x="240" y="450" />
              <mxPoint x="240" y="325" />
            </Array>
          </mxGeometry>
        </mxCell>
        <mxCell id="6fCM-ssJAGUvHr9FJVWj-4" value="&lt;b&gt;Действие&lt;/b&gt;" style="rounded=0;whiteSpace=wrap;html=1;fillColor=#d5e8d4;strokeColor=#82b366;" vertex="1" parent="1">
          <mxGeometry x="349" y="420" width="130" height="60" as="geometry" />
        </mxCell>
        <mxCell id="6fCM-ssJAGUvHr9FJVWj-5" value="&lt;b&gt;Вывод&lt;/b&gt;" style="shape=document;whiteSpace=wrap;html=1;boundedLbl=1;fillColor=#f5f5f5;fontColor=#333333;strokeColor=#666666;" vertex="1" parent="1">
          <mxGeometry x="580" y="285" width="120" height="80" as="geometry" />
        </mxCell>
        <mxCell id="6fCM-ssJAGUvHr9FJVWj-12" value="&lt;b&gt;Да&lt;/b&gt;" style="text;html=1;align=center;verticalAlign=middle;resizable=0;points=[];autosize=1;strokeColor=none;fillColor=none;" vertex="1" parent="1">
          <mxGeometry x="408" y="379" width="40" height="30" as="geometry" />
        </mxCell>
        <mxCell id="6fCM-ssJAGUvHr9FJVWj-14" value="&lt;b&gt;Нет&lt;/b&gt;" style="text;html=1;align=center;verticalAlign=middle;resizable=0;points=[];autosize=1;strokeColor=none;fillColor=none;" vertex="1" parent="1">
          <mxGeometry x="514" y="300" width="40" height="30" as="geometry" />
        </mxCell>
      </root>
    </mxGraphModel>
  </diagram>
</mxfile>
